<svg width="12" height="14" viewBox="0 0 12 14" fill="none" xmlns="http://www.w3.org/2000/svg">
<path fill-rule="evenodd" clip-rule="evenodd" d="M6.16632 0.333313C9.19899 0.333313 11.6663 2.81931 11.6663 5.87531C11.6663 9.63198 7.36232 13.3333 6.16632 13.3333C4.97032 13.3333 0.666321 9.63198 0.666321 5.87531C0.666321 2.81931 3.13365 0.333313 6.16632 0.333313ZM6.16632 1.33331C3.68499 1.33331 1.66632 3.37131 1.66632 5.87531C1.66632 9.06131 5.41565 12.1653 6.16632 12.3306C6.91699 12.1646 10.6663 9.06065 10.6663 5.87531C10.6663 3.37131 8.64765 1.33331 6.16632 1.33331ZM6.16699 3.66665C7.36165 3.66665 8.33365 4.63865 8.33365 5.83398C8.33365 7.02865 7.36165 7.99998 6.16699 7.99998C4.97232 7.99998 4.00032 7.02865 4.00032 5.83398C4.00032 4.63865 4.97232 3.66665 6.16699 3.66665ZM6.16699 4.66665C5.52365 4.66665 5.00032 5.18998 5.00032 5.83398C5.00032 6.47731 5.52365 6.99998 6.16699 6.99998C6.81032 6.99998 7.33365 6.47731 7.33365 5.83398C7.33365 5.18998 6.81032 4.66665 6.16699 4.66665Z" fill="#B8BDCC"/>
</svg>
